<svg role="img" viewBox="0 0 24 24" xmlns="http://www.w3.org/2000/svg"><title>WhatsApp</title><path d="M20.52 3.478A11.82 11.82 0 0 0 12.115 0C5.565 0 .25 5.315.25 11.865c0 2.09.546 4.13 1.585 5.93L0 24l6.39-1.777a11.82 11.82 0 0 0 5.725 1.46H12.12c6.55 0 11.865-5.315 11.865-11.865a11.79 11.79 0 0 0-3.465-8.34zm-8.405 18.2a9.93 9.93 0 0 1-5.06-1.385l-.365-.215-3.79 1.055 1.01-3.695-.24-.38a9.93 9.93 0 0 1-1.53-5.195c0-5.47 4.45-9.92 9.925-9.92a9.86 9.86 0 0 1 7.035 2.915 9.86 9.86 0 0 1 2.9 7.005c-.005 5.47-4.46 9.915-9.925 9.915zm5.44-7.42c-.295-.15-1.745-.86-2.015-.96-.27-.1-.465-.15-.665.15-.195.295-.76.96-.935 1.155-.17.2-.345.225-.64.075-.295-.15-1.25-.46-2.38-1.47-.88-.785-1.47-1.755-1.645-2.05-.17-.295-.02-.455.13-.605.135-.135.295-.345.445-.52.145-.17.195-.295.295-.495.1-.2.05-.37-.025-.52-.075-.15-.665-1.605-.91-2.2-.24-.575-.48-.5-.665-.51l-.565-.01c-.195 0-.515.075-.785.37-.27.295-1.03 1.005-1.03 2.45 0 1.445 1.055 2.84 1.2 3.035.15.2 2.065 3.155 5.005 4.42.7.305 1.25.485 1.675.62.705.225 1.345.195 1.85.12.565-.085 1.745-.715 1.99-1.405.245-.69.245-1.28.17-1.405-.07-.12-.27-.195-.565-.345z"/></svg>
